HIERARCHY
ROOT Hips
{
	OFFSET 0.000000 0.000000 0.000000
	CHANNELS 6 Xposition Yposition Zposition Zrotation Yrotation Xrotation 
	JOINT LowerBack
	{
		OFFSET 0.000000 0.000000 0.000000
		CHANNELS 3 Zrotation Yrotation Xrotation
		JOINT Spine
		{
			OFFSET 0.028270 2.035590 -0.193380
			CHANNELS 3 Zrotation Yrotation Xrotation
			JOINT Spine1
			{
				OFFSET 0.056720 2.048850 -0.042750
				CHANNELS 3 Zrotation Yrotation Xrotation
				JOINT Neck
				{
					OFFSET 0.000000 0.000000 0.000000
					CHANNELS 3 Zrotation Yrotation Xrotation
					JOINT Neck1
					{
						OFFSET -0.054170 1.746240 0.172020
						CHANNELS 3 Zrotation Yrotation Xrotation
						JOINT Head
						{
							OFFSET 0.104070 1.761360 -0.123970
							CHANNELS 3 Zrotation Yrotation Xrotation
							End Site
							{
								OFFSET 0.000000 0.000000 0.000000
							}
						}
					}
				}
				JOINT LeftShoulder
				{
					OFFSET 0.000000 0.000000 0.000000
					CHANNELS 3 Zrotation Yrotation Xrotation
					JOINT LeftArm
					{
						OFFSET 3.362410 1.200890 -0.311210
						CHANNELS 3 Zrotation Yrotation Xrotation
						JOINT LeftForeArm
						{
							OFFSET 4.983000 -0.000000 -0.000000
							CHANNELS 3 Zrotation Yrotation Xrotation
							JOINT LeftHand
							{
								OFFSET 3.483560 -0.000000 -0.000000
								CHANNELS 3 Zrotation Yrotation Xrotation
								JOINT LeftFingerBase
								{
									OFFSET 0.000000 0.000000 0.000000
									CHANNELS 3 Zrotation Yrotation Xrotation
									JOINT LeftHandIndex1
									{
										OFFSET 0.715260 -0.000000 -0.000000
										CHANNELS 3 Zrotation Yrotation Xrotation
										End Site
										{
											OFFSET 0.000000 0.000000 0.000000
										}
									}
								}
								JOINT LThumb
								{
									OFFSET 0.000000 0.000000 0.000000
									CHANNELS 3 Zrotation Yrotation Xrotation
									End Site
									{
										OFFSET 0.000000 0.000000 0.000000
									}
								}
							}
						}
					}
				}
				JOINT RightShoulder
				{
					OFFSET 0.000000 0.000000 0.000000
					CHANNELS 3 Zrotation Yrotation Xrotation
					JOINT RightArm
					{
						OFFSET -3.136600 1.374050 -0.404650
						CHANNELS 3 Zrotation Yrotation Xrotation
						JOINT RightForeArm
						{
							OFFSET -5.241900 -0.000000 -0.000000
							CHANNELS 3 Zrotation Yrotation Xrotation
							JOINT RightHand
							{
								OFFSET -3.444170 -0.000000 -0.000000
								CHANNELS 3 Zrotation Yrotation Xrotation
								JOINT RightFingerBase
								{
									OFFSET 0.000000 0.000000 0.000000
									CHANNELS 3 Zrotation Yrotation Xrotation
									JOINT RightHandIndex1
									{
										OFFSET -0.622530 -0.000000 -0.000000
										CHANNELS 3 Zrotation Yrotation Xrotation
										End Site
										{
											OFFSET 0.000000 0.000000 0.000000
										}
									}
								}
								JOINT RThumb
								{
									OFFSET 0.000000 0.000000 0.000000
									CHANNELS 3 Zrotation Yrotation Xrotation
									End Site
									{
										OFFSET 0.000000 0.000000 0.000000
									}
								}
							}
						}
					}
				}
			}
		}
	}
}
}
MOTION
Frames: 7
Frame Time: 0.008333
6.397521 21.361311 0.683801 22.413043 -80.921917 -8.425463 -3.026862 -1.495124 -11.519156 -0.489500 -1.439504 -5.350636 -1.410295 -1.664281 -1.325615 5.525584 -10.211099 -3.844368 1.341917 0.019399 1.163165 0.000000 0.000000 0.000000 18.146669 12.685339 -4.704623 1.900276 -37.893255 -51.967242 176.228184 -56.223474 179.576509 40.876268 -41.863505 -17.160041 -0.555625 1.666138 -0.000000 0.000000 0.000000 0.000000 0.000000 0.000000 0.000000 -14.535649 -10.034778 -1.163285 12.775328 15.540652 -70.491277 -178.614028 48.811213 179.882689 -44.179953 49.413760 -22.169506 0.770453 -1.605369 -0.000000 0.000000 0.000000 0.000000 0.000000 0.000000 0.000000 
6.201545 21.426000 0.671817 21.545899 -81.162827 -7.693949 -2.876350 -1.453890 -11.412679 -0.460320 -1.411738 -5.283607 -1.401946 -1.636092 -1.166897 5.568480 -10.527725 -4.057418 1.363877 0.025646 1.102684 0.000000 0.000000 0.000000 17.973083 13.668263 -4.723024 2.512951 -37.913723 -53.178298 176.216319 -55.585155 179.581315 40.889421 -41.931069 -17.202745 -0.568774 1.677114 -0.000000 0.000000 0.000000 0.000000 0.000000 0.000000 0.000000 -14.502395 -10.474475 -1.170325 12.401656 15.057654 -70.706843 -178.617974 48.410504 179.884616 -44.443686 49.577427 -22.396934 0.779406 -1.617794 -0.000000 0.000000 0.000000 0.000000 0.000000 0.000000 0.000000 
5.999224 21.484206 0.663347 20.313195 -81.336894 -6.523391 -2.698821 -1.422502 -11.435095 -0.424342 -1.398621 -5.241427 -1.401411 -1.623021 -1.006702 5.628236 -10.797086 -4.240458 1.365655 0.029800 1.051566 0.000000 0.000000 0.000000 17.801720 14.589596 -4.747022 2.975764 -38.009743 -54.089355 176.199273 -55.008844 179.585129 40.783002 -41.984277 -17.186023 -0.578584 1.689030 -0.000000 0.000000 0.000000 0.000000 0.000000 0.000000 0.000000 -14.362105 -10.864878 -1.188964 11.953152 14.563581 -70.643204 -178.623793 48.087042 179.885594 -44.505440 49.751893 -22.522074 0.783618 -1.630750 -0.000000 0.000000 0.000000 0.000000 0.000000 0.000000 0.000000 
5.789734 21.536888 0.657263 18.962310 -81.444933 -5.142702 -2.533063 -1.399316 -11.600402 -0.391092 -1.395192 -5.227639 -1.408552 -1.620759 -0.844107 5.711051 -11.031152 -4.396206 1.348193 0.031943 1.009155 0.000000 0.000000 0.000000 17.649895 15.435834 -4.776465 3.288096 -38.161526 -54.698344 176.176122 -54.469180 179.588072 40.582752 -42.055782 -17.135178 -0.585269 1.702560 -0.000000 0.000000 0.000000 0.000000 0.000000 0.000000 0.000000 -14.112188 -11.216721 -1.216525 11.438577 14.062990 -70.319491 -178.632325 47.823336 179.885841 -44.398585 49.949549 -22.568010 0.783694 -1.644560 -0.000000 0.000000 0.000000 0.000000 0.000000 0.000000 0.000000 
5.574821 21.583831 0.653692 17.321449 -81.447966 -3.426838 -2.352144 -1.390394 -11.856158 -0.353595 -1.409357 -5.234921 -1.421399 -1.636067 -0.687401 5.793449 -11.214833 -4.525712 1.317660 0.032538 0.974774 0.000000 0.000000 0.000000 17.520676 16.139131 -4.800840 3.430652 -38.273118 -55.014125 176.145346 -53.912117 179.590277 40.346262 -42.113915 -17.062914 -0.591362 1.717745 -0.000000 0.000000 0.000000 0.000000 0.000000 0.000000 0.000000 -13.820426 -11.511277 -1.242793 10.928848 13.505135 -69.773806 -178.642768 47.585908 179.885499 -44.171126 50.167204 -22.558346 0.780879 -1.659541 -0.000000 0.000000 0.000000 0.000000 0.000000 0.000000 0.000000 
5.355116 21.625188 0.650622 15.780759 -81.367875 -1.769081 -2.211160 -1.391868 -12.183924 -0.326053 -1.431866 -5.260284 -1.441063 -1.660334 -0.537470 5.891187 -11.364922 -4.635614 1.275516 0.031820 0.946428 0.000000 0.000000 0.000000 17.441029 16.700661 -4.820383 3.410714 -38.329281 -55.064662 176.109399 -53.331738 179.591997 40.101416 -42.184335 -16.992638 -0.597130 1.734637 -0.000000 0.000000 0.000000 0.000000 0.000000 0.000000 0.000000 -13.472321 -11.762267 -1.265159 10.435748 12.903871 -69.045980 -178.655231 47.367476 179.884818 -43.873798 50.402787 -22.518665 0.776157 -1.675309 -0.000000 0.000000 0.000000 0.000000 0.000000 0.000000 0.000000 
5.132727 21.660636 0.647413 14.347503 -81.196719 -0.219344 -2.102569 -1.405663 -12.524024 -0.306795 -1.464508 -5.293677 -1.467108 -1.694688 -0.400291 5.989049 -11.478405 -4.729595 1.229044 0.030414 0.922617 0.000000 0.000000 0.000000 17.412826 17.084831 -4.827128 3.232596 -38.262003 -54.888031 176.070827 -52.701382 179.593521 39.891265 -42.254060 -16.938356 -0.604349 1.753092 -0.000000 0.000000 0.000000 0.000000 0.000000 0.000000 0.000000 -13.128675 -11.962971 -1.276209 10.043637 12.241740 -68.178980 -178.669126 47.141492 179.883934 -43.545811 50.654620 -22.469070 0.770477 -1.691995 -0.000000 0.000000 0.000000 0.000000 0.000000 0.000000 0.000000 
